<svg xmlns="http://www.w3.org/2000/svg" width="89.959" height="48.504" viewBox="0 0 89.959 48.504" class="s-ion-icon">
    <path d="M69.959,48.5H20a19.983,19.983,0,0,1-20-20V20A19.983,19.983,0,0,1,20,0H69.959a19.983,19.983,0,0,1,20,20v8.5a19.983,19.983,0,0,1-20,20ZM65.741,30.437a3.84,3.84,0,1,0,3.84,3.84A3.844,3.844,0,0,0,65.741,30.437ZM14.175,20.395a3.84,3.84,0,0,0,0,7.68h6.2v6.2a3.84,3.84,0,0,0,7.68,0v-6.2h6.2a3.84,3.84,0,1,0,0-7.68h-6.2v-6.2a3.84,3.84,0,0,0-7.68,0v6.2Zm61.609,0a3.84,3.84,0,1,0,3.839,3.839A3.844,3.844,0,0,0,75.784,20.395Zm-20.085,0a3.84,3.84,0,1,0,3.84,3.839A3.844,3.844,0,0,0,55.7,20.395ZM65.741,10.353a3.84,3.84,0,1,0,3.84,3.839A3.844,3.844,0,0,0,65.741,10.353Z"/>
</svg>
